<mxfile host="app.diagrams.net" modified="2022-06-27T17:29:49.972Z" agent="5.0 (Windows NT 10.0; Win64; x64) AppleWebKit/537.36 (KHTML, like Gecko) Chrome/102.0.0.0 Safari/537.36" etag="oeSvfeIsLIdzfWM04Swz" version="20.0.3" type="github">
  <diagram id="YyVtHMCVjJAJdgX77xl3" name="Page-1">
    <mxGraphModel dx="1154" dy="648" grid="1" gridSize="10" guides="1" tooltips="1" connect="1" arrows="1" fold="1" page="1" pageScale="1" pageWidth="827" pageHeight="1169" math="0" shadow="0">
      <root>
        <mxCell id="0" />
        <mxCell id="1" parent="0" />
        <mxCell id="Dba_KshNGZGqnBGReFBX-1" value="SUNAT" style="points=[[0,0],[0.25,0],[0.5,0],[0.75,0],[1,0],[1,0.25],[1,0.5],[1,0.75],[1,1],[0.75,1],[0.5,1],[0.25,1],[0,1],[0,0.75],[0,0.5],[0,0.25]];outlineConnect=0;gradientColor=none;html=1;whiteSpace=wrap;fontSize=12;fontStyle=0;container=1;pointerEvents=0;collapsible=0;recursiveResize=0;shape=mxgraph.aws4.group;grIcon=mxgraph.aws4.group_corporate_data_center;strokeColor=#5A6C86;fillColor=none;verticalAlign=top;align=left;spacingLeft=30;fontColor=#5A6C86;dashed=0;" parent="1" vertex="1">
          <mxGeometry x="180" y="130" width="1150" height="1810" as="geometry" />
        </mxCell>
        <mxCell id="Dba_KshNGZGqnBGReFBX-11" style="edgeStyle=orthogonalEdgeStyle;rounded=0;orthogonalLoop=1;jettySize=auto;html=1;fillColor=#f8cecc;strokeColor=#b85450;strokeWidth=2;" parent="Dba_KshNGZGqnBGReFBX-1" source="605iq-lV5Hz9d19N_AwI-5" target="Dba_KshNGZGqnBGReFBX-10" edge="1">
          <mxGeometry relative="1" as="geometry">
            <mxPoint x="519" y="270" as="targetPoint" />
          </mxGeometry>
        </mxCell>
        <mxCell id="Dba_KshNGZGqnBGReFBX-15" style="edgeStyle=orthogonalEdgeStyle;rounded=0;orthogonalLoop=1;jettySize=auto;html=1;entryX=0;entryY=0.5;entryDx=0;entryDy=0;entryPerimeter=0;fillColor=#f8cecc;strokeColor=#b85450;strokeWidth=2;" parent="Dba_KshNGZGqnBGReFBX-1" source="Dba_KshNGZGqnBGReFBX-10" target="605iq-lV5Hz9d19N_AwI-3" edge="1">
          <mxGeometry relative="1" as="geometry">
            <mxPoint x="659" y="224" as="targetPoint" />
          </mxGeometry>
        </mxCell>
        <mxCell id="rfN_ANFpvwZ0smsy0Tpu-48" style="edgeStyle=orthogonalEdgeStyle;rounded=0;orthogonalLoop=1;jettySize=auto;html=1;strokeWidth=2;fillColor=#f8cecc;strokeColor=#b85450;" parent="Dba_KshNGZGqnBGReFBX-1" source="Dba_KshNGZGqnBGReFBX-10" target="rfN_ANFpvwZ0smsy0Tpu-46" edge="1">
          <mxGeometry relative="1" as="geometry" />
        </mxCell>
        <mxCell id="Dba_KshNGZGqnBGReFBX-10" value="Bus de Eventos" style="sketch=0;aspect=fixed;html=1;points=[];align=center;image;fontSize=12;image=img/lib/mscae/Event_Hubs.svg;" parent="Dba_KshNGZGqnBGReFBX-1" vertex="1">
          <mxGeometry x="489" y="325" width="48" height="50" as="geometry" />
        </mxCell>
        <mxCell id="Dba_KshNGZGqnBGReFBX-19" style="edgeStyle=orthogonalEdgeStyle;rounded=0;orthogonalLoop=1;jettySize=auto;html=1;entryX=0;entryY=0.5;entryDx=0;entryDy=0;entryPerimeter=0;fillColor=#dae8fc;strokeColor=#6c8ebf;strokeWidth=2;" parent="Dba_KshNGZGqnBGReFBX-1" source="Dba_KshNGZGqnBGReFBX-16" target="605iq-lV5Hz9d19N_AwI-5" edge="1">
          <mxGeometry relative="1" as="geometry" />
        </mxCell>
        <mxCell id="Dba_KshNGZGqnBGReFBX-16" value="Consultas a Cuentas Acumulación" style="sketch=0;aspect=fixed;html=1;points=[];align=center;image;fontSize=12;image=img/lib/mscae/App_Services.svg;" parent="Dba_KshNGZGqnBGReFBX-1" vertex="1">
          <mxGeometry x="90" y="355" width="50" height="50" as="geometry" />
        </mxCell>
        <mxCell id="605iq-lV5Hz9d19N_AwI-3" value="Cuentas de Control" style="sketch=0;points=[[0,0,0],[0.25,0,0],[0.5,0,0],[0.75,0,0],[1,0,0],[0,1,0],[0.25,1,0],[0.5,1,0],[0.75,1,0],[1,1,0],[0,0.25,0],[0,0.5,0],[0,0.75,0],[1,0.25,0],[1,0.5,0],[1,0.75,0]];outlineConnect=0;fontColor=#232F3E;gradientColor=#4D72F3;gradientDirection=north;fillColor=#3334B9;strokeColor=#ffffff;dashed=0;verticalLabelPosition=bottom;verticalAlign=top;align=center;html=1;fontSize=12;fontStyle=0;aspect=fixed;shape=mxgraph.aws4.resourceIcon;resIcon=mxgraph.aws4.documentdb_with_mongodb_compatibility;" parent="Dba_KshNGZGqnBGReFBX-1" vertex="1">
          <mxGeometry x="832" y="202" width="58" height="58" as="geometry" />
        </mxCell>
        <mxCell id="605iq-lV5Hz9d19N_AwI-4" value="Padrón de Pre-obligados" style="sketch=0;points=[[0,0,0],[0.25,0,0],[0.5,0,0],[0.75,0,0],[1,0,0],[0,1,0],[0.25,1,0],[0.5,1,0],[0.75,1,0],[1,1,0],[0,0.25,0],[0,0.5,0],[0,0.75,0],[1,0.25,0],[1,0.5,0],[1,0.75,0]];outlineConnect=0;fontColor=#232F3E;gradientColor=#4D72F3;gradientDirection=north;fillColor=#3334B9;strokeColor=#ffffff;dashed=0;verticalLabelPosition=bottom;verticalAlign=top;align=center;html=1;fontSize=12;fontStyle=0;aspect=fixed;shape=mxgraph.aws4.resourceIcon;resIcon=mxgraph.aws4.documentdb_with_mongodb_compatibility;" parent="Dba_KshNGZGqnBGReFBX-1" vertex="1">
          <mxGeometry x="840" y="350" width="59" height="59" as="geometry" />
        </mxCell>
        <mxCell id="605iq-lV5Hz9d19N_AwI-5" value="Cuentas de Acumulación&lt;br&gt;Renta PN&lt;br&gt;Renta PJ&lt;br&gt;IGV&lt;br&gt;Saldos de Creditos" style="sketch=0;points=[[0,0,0],[0.25,0,0],[0.5,0,0],[0.75,0,0],[1,0,0],[0,1,0],[0.25,1,0],[0.5,1,0],[0.75,1,0],[1,1,0],[0,0.25,0],[0,0.5,0],[0,0.75,0],[1,0.25,0],[1,0.5,0],[1,0.75,0]];outlineConnect=0;gradientDirection=north;dashed=0;verticalLabelPosition=bottom;verticalAlign=top;align=center;html=1;fontSize=12;fontStyle=0;aspect=fixed;shape=mxgraph.aws4.resourceIcon;resIcon=mxgraph.aws4.documentdb_with_mongodb_compatibility;fillColor=#3334B9;strokeColor=#ffffff;fontColor=#232F3E;gradientColor=#4D72F3;" parent="Dba_KshNGZGqnBGReFBX-1" vertex="1">
          <mxGeometry x="309" y="311" width="54" height="54" as="geometry" />
        </mxCell>
        <mxCell id="605iq-lV5Hz9d19N_AwI-18" style="edgeStyle=orthogonalEdgeStyle;rounded=0;orthogonalLoop=1;jettySize=auto;html=1;strokeWidth=2;fillColor=#f8cecc;strokeColor=#b85450;" parent="Dba_KshNGZGqnBGReFBX-1" source="605iq-lV5Hz9d19N_AwI-8" target="605iq-lV5Hz9d19N_AwI-15" edge="1">
          <mxGeometry relative="1" as="geometry" />
        </mxCell>
        <mxCell id="605iq-lV5Hz9d19N_AwI-8" value="Plataforma Unica" style="sketch=0;aspect=fixed;html=1;points=[];align=center;image;fontSize=12;image=img/lib/mscae/App_Services.svg;" parent="Dba_KshNGZGqnBGReFBX-1" vertex="1">
          <mxGeometry x="50" y="105" width="50" height="50" as="geometry" />
        </mxCell>
        <mxCell id="605iq-lV5Hz9d19N_AwI-13" style="edgeStyle=orthogonalEdgeStyle;rounded=0;orthogonalLoop=1;jettySize=auto;html=1;fillColor=#f8cecc;strokeColor=#b85450;strokeWidth=2;" parent="Dba_KshNGZGqnBGReFBX-1" target="605iq-lV5Hz9d19N_AwI-5" edge="1">
          <mxGeometry relative="1" as="geometry">
            <mxPoint x="383" y="240" as="sourcePoint" />
          </mxGeometry>
        </mxCell>
        <mxCell id="rfN_ANFpvwZ0smsy0Tpu-47" style="edgeStyle=orthogonalEdgeStyle;rounded=0;orthogonalLoop=1;jettySize=auto;html=1;strokeWidth=2;" parent="Dba_KshNGZGqnBGReFBX-1" source="605iq-lV5Hz9d19N_AwI-9" target="rfN_ANFpvwZ0smsy0Tpu-45" edge="1">
          <mxGeometry relative="1" as="geometry">
            <Array as="points">
              <mxPoint x="434" y="235" />
            </Array>
          </mxGeometry>
        </mxCell>
        <mxCell id="605iq-lV5Hz9d19N_AwI-9" value="Bus de Eventos&lt;br&gt;Cuentas de Acumulación" style="sketch=0;aspect=fixed;html=1;points=[];align=center;image;fontSize=12;image=img/lib/mscae/Event_Hubs.svg;" parent="Dba_KshNGZGqnBGReFBX-1" vertex="1">
          <mxGeometry x="410" y="105" width="48" height="50" as="geometry" />
        </mxCell>
        <mxCell id="605iq-lV5Hz9d19N_AwI-17" style="edgeStyle=orthogonalEdgeStyle;rounded=0;orthogonalLoop=1;jettySize=auto;html=1;strokeWidth=2;fillColor=#f8cecc;strokeColor=#b85450;" parent="Dba_KshNGZGqnBGReFBX-1" source="605iq-lV5Hz9d19N_AwI-15" target="605iq-lV5Hz9d19N_AwI-9" edge="1">
          <mxGeometry relative="1" as="geometry" />
        </mxCell>
        <mxCell id="605iq-lV5Hz9d19N_AwI-15" value="Declaraciones y Pagos" style="sketch=0;points=[[0,0,0],[0.25,0,0],[0.5,0,0],[0.75,0,0],[1,0,0],[0,1,0],[0.25,1,0],[0.5,1,0],[0.75,1,0],[1,1,0],[0,0.25,0],[0,0.5,0],[0,0.75,0],[1,0.25,0],[1,0.5,0],[1,0.75,0]];outlineConnect=0;fontColor=#232F3E;gradientColor=#4D72F3;gradientDirection=north;fillColor=#3334B9;strokeColor=#ffffff;dashed=0;verticalLabelPosition=bottom;verticalAlign=top;align=center;html=1;fontSize=12;fontStyle=0;aspect=fixed;shape=mxgraph.aws4.resourceIcon;resIcon=mxgraph.aws4.database;" parent="Dba_KshNGZGqnBGReFBX-1" vertex="1">
          <mxGeometry x="164" y="100" width="60" height="60" as="geometry" />
        </mxCell>
        <mxCell id="rfN_ANFpvwZ0smsy0Tpu-8" style="edgeStyle=orthogonalEdgeStyle;rounded=0;orthogonalLoop=1;jettySize=auto;html=1;strokeWidth=2;" parent="Dba_KshNGZGqnBGReFBX-1" source="rfN_ANFpvwZ0smsy0Tpu-2" target="rfN_ANFpvwZ0smsy0Tpu-3" edge="1">
          <mxGeometry relative="1" as="geometry" />
        </mxCell>
        <mxCell id="rfN_ANFpvwZ0smsy0Tpu-11" style="edgeStyle=orthogonalEdgeStyle;rounded=0;orthogonalLoop=1;jettySize=auto;html=1;strokeWidth=2;fillColor=#dae8fc;strokeColor=#6c8ebf;" parent="Dba_KshNGZGqnBGReFBX-1" source="rfN_ANFpvwZ0smsy0Tpu-2" target="605iq-lV5Hz9d19N_AwI-4" edge="1">
          <mxGeometry relative="1" as="geometry">
            <Array as="points">
              <mxPoint x="265" y="575" />
              <mxPoint x="750" y="575" />
            </Array>
          </mxGeometry>
        </mxCell>
        <mxCell id="rfN_ANFpvwZ0smsy0Tpu-12" style="edgeStyle=orthogonalEdgeStyle;rounded=0;orthogonalLoop=1;jettySize=auto;html=1;strokeWidth=2;" parent="Dba_KshNGZGqnBGReFBX-1" source="rfN_ANFpvwZ0smsy0Tpu-2" target="rfN_ANFpvwZ0smsy0Tpu-4" edge="1">
          <mxGeometry relative="1" as="geometry">
            <Array as="points" />
          </mxGeometry>
        </mxCell>
        <mxCell id="rfN_ANFpvwZ0smsy0Tpu-14" style="edgeStyle=orthogonalEdgeStyle;rounded=0;orthogonalLoop=1;jettySize=auto;html=1;entryX=0.5;entryY=1;entryDx=0;entryDy=0;entryPerimeter=0;strokeWidth=2;strokeColor=#6c8ebf;fillColor=#dae8fc;" parent="Dba_KshNGZGqnBGReFBX-1" source="rfN_ANFpvwZ0smsy0Tpu-2" target="rfN_ANFpvwZ0smsy0Tpu-13" edge="1">
          <mxGeometry relative="1" as="geometry">
            <Array as="points">
              <mxPoint x="265" y="575" />
              <mxPoint x="270" y="575" />
            </Array>
          </mxGeometry>
        </mxCell>
        <mxCell id="rfN_ANFpvwZ0smsy0Tpu-69" style="edgeStyle=orthogonalEdgeStyle;rounded=0;orthogonalLoop=1;jettySize=auto;html=1;entryX=0.5;entryY=1;entryDx=0;entryDy=0;entryPerimeter=0;strokeWidth=2;strokeColor=#6c8ebf;fillColor=#dae8fc;" parent="Dba_KshNGZGqnBGReFBX-1" source="rfN_ANFpvwZ0smsy0Tpu-2" target="rfN_ANFpvwZ0smsy0Tpu-53" edge="1">
          <mxGeometry relative="1" as="geometry">
            <Array as="points">
              <mxPoint x="265" y="570" />
              <mxPoint x="381" y="570" />
            </Array>
          </mxGeometry>
        </mxCell>
        <mxCell id="rfN_ANFpvwZ0smsy0Tpu-2" value="Modulo de &lt;br&gt;Infracciones" style="sketch=0;aspect=fixed;html=1;points=[];align=center;image;fontSize=12;image=img/lib/mscae/App_Services.svg;" parent="Dba_KshNGZGqnBGReFBX-1" vertex="1">
          <mxGeometry x="240" y="600" width="50" height="50" as="geometry" />
        </mxCell>
        <mxCell id="rfN_ANFpvwZ0smsy0Tpu-3" value="Infracciones" style="sketch=0;points=[[0,0,0],[0.25,0,0],[0.5,0,0],[0.75,0,0],[1,0,0],[0,1,0],[0.25,1,0],[0.5,1,0],[0.75,1,0],[1,1,0],[0,0.25,0],[0,0.5,0],[0,0.75,0],[1,0.25,0],[1,0.5,0],[1,0.75,0]];outlineConnect=0;fontColor=#232F3E;gradientColor=#4D72F3;gradientDirection=north;fillColor=#3334B9;strokeColor=#ffffff;dashed=0;verticalLabelPosition=bottom;verticalAlign=top;align=center;html=1;fontSize=12;fontStyle=0;aspect=fixed;shape=mxgraph.aws4.resourceIcon;resIcon=mxgraph.aws4.documentdb_with_mongodb_compatibility;" parent="Dba_KshNGZGqnBGReFBX-1" vertex="1">
          <mxGeometry x="340" y="765" width="58" height="58" as="geometry" />
        </mxCell>
        <mxCell id="rfN_ANFpvwZ0smsy0Tpu-7" style="edgeStyle=orthogonalEdgeStyle;rounded=0;orthogonalLoop=1;jettySize=auto;html=1;strokeWidth=2;" parent="Dba_KshNGZGqnBGReFBX-1" source="rfN_ANFpvwZ0smsy0Tpu-4" target="rfN_ANFpvwZ0smsy0Tpu-5" edge="1">
          <mxGeometry relative="1" as="geometry">
            <Array as="points">
              <mxPoint x="690" y="649" />
              <mxPoint x="690" y="544" />
            </Array>
          </mxGeometry>
        </mxCell>
        <mxCell id="rfN_ANFpvwZ0smsy0Tpu-68" style="edgeStyle=orthogonalEdgeStyle;rounded=0;orthogonalLoop=1;jettySize=auto;html=1;entryX=-0.02;entryY=0.64;entryDx=0;entryDy=0;entryPerimeter=0;strokeWidth=2;" parent="Dba_KshNGZGqnBGReFBX-1" source="rfN_ANFpvwZ0smsy0Tpu-4" target="rfN_ANFpvwZ0smsy0Tpu-67" edge="1">
          <mxGeometry relative="1" as="geometry">
            <Array as="points">
              <mxPoint x="690" y="649" />
              <mxPoint x="690" y="722" />
            </Array>
          </mxGeometry>
        </mxCell>
        <mxCell id="rfN_ANFpvwZ0smsy0Tpu-4" value="Bus de Eventos" style="sketch=0;aspect=fixed;html=1;points=[];align=center;image;fontSize=12;image=img/lib/mscae/Event_Hubs.svg;" parent="Dba_KshNGZGqnBGReFBX-1" vertex="1">
          <mxGeometry x="520" y="624" width="48" height="50" as="geometry" />
        </mxCell>
        <mxCell id="rfN_ANFpvwZ0smsy0Tpu-5" value="RSIRAT&lt;br&gt;Infracciones&lt;br&gt;(informix)" style="sketch=0;points=[[0,0,0],[0.25,0,0],[0.5,0,0],[0.75,0,0],[1,0,0],[0,1,0],[0.25,1,0],[0.5,1,0],[0.75,1,0],[1,1,0],[0,0.25,0],[0,0.5,0],[0,0.75,0],[1,0.25,0],[1,0.5,0],[1,0.75,0]];outlineConnect=0;gradientDirection=north;dashed=0;verticalLabelPosition=bottom;verticalAlign=top;align=center;html=1;fontSize=12;fontStyle=0;aspect=fixed;shape=mxgraph.aws4.resourceIcon;resIcon=mxgraph.aws4.database;fillColor=#dae8fc;strokeColor=#6c8ebf;" parent="Dba_KshNGZGqnBGReFBX-1" vertex="1">
          <mxGeometry x="850" y="514" width="60" height="60" as="geometry" />
        </mxCell>
        <mxCell id="rfN_ANFpvwZ0smsy0Tpu-10" style="edgeStyle=orthogonalEdgeStyle;rounded=0;orthogonalLoop=1;jettySize=auto;html=1;strokeWidth=2;" parent="Dba_KshNGZGqnBGReFBX-1" source="rfN_ANFpvwZ0smsy0Tpu-9" target="rfN_ANFpvwZ0smsy0Tpu-2" edge="1">
          <mxGeometry relative="1" as="geometry">
            <Array as="points">
              <mxPoint x="180" y="665" />
              <mxPoint x="180" y="625" />
            </Array>
          </mxGeometry>
        </mxCell>
        <mxCell id="rfN_ANFpvwZ0smsy0Tpu-9" value="Bus de Eventos" style="sketch=0;aspect=fixed;html=1;points=[];align=center;image;fontSize=12;image=img/lib/mscae/Event_Hubs.svg;" parent="Dba_KshNGZGqnBGReFBX-1" vertex="1">
          <mxGeometry x="70" y="640" width="48" height="50" as="geometry" />
        </mxCell>
        <mxCell id="rfN_ANFpvwZ0smsy0Tpu-13" value="Vencimientos" style="sketch=0;points=[[0,0,0],[0.25,0,0],[0.5,0,0],[0.75,0,0],[1,0,0],[0,1,0],[0.25,1,0],[0.5,1,0],[0.75,1,0],[1,1,0],[0,0.25,0],[0,0.5,0],[0,0.75,0],[1,0.25,0],[1,0.5,0],[1,0.75,0]];outlineConnect=0;fontColor=#232F3E;gradientColor=#4D72F3;gradientDirection=north;fillColor=#3334B9;strokeColor=#ffffff;dashed=0;verticalLabelPosition=bottom;verticalAlign=top;align=center;html=1;fontSize=12;fontStyle=0;aspect=fixed;shape=mxgraph.aws4.resourceIcon;resIcon=mxgraph.aws4.documentdb_with_mongodb_compatibility;" parent="Dba_KshNGZGqnBGReFBX-1" vertex="1">
          <mxGeometry x="240" y="455" width="59" height="59" as="geometry" />
        </mxCell>
        <mxCell id="rfN_ANFpvwZ0smsy0Tpu-30" style="edgeStyle=orthogonalEdgeStyle;rounded=0;orthogonalLoop=1;jettySize=auto;html=1;entryX=-0.083;entryY=0.46;entryDx=0;entryDy=0;entryPerimeter=0;strokeWidth=2;fillColor=#f8cecc;strokeColor=#b85450;" parent="Dba_KshNGZGqnBGReFBX-1" source="rfN_ANFpvwZ0smsy0Tpu-15" target="rfN_ANFpvwZ0smsy0Tpu-27" edge="1">
          <mxGeometry relative="1" as="geometry" />
        </mxCell>
        <mxCell id="rfN_ANFpvwZ0smsy0Tpu-15" value="Modulo de Gestión de Solicitudes" style="sketch=0;aspect=fixed;html=1;points=[];align=center;image;fontSize=12;image=img/lib/mscae/App_Services.svg;" parent="Dba_KshNGZGqnBGReFBX-1" vertex="1">
          <mxGeometry x="142.13" y="1318" width="50" height="50" as="geometry" />
        </mxCell>
        <mxCell id="rfN_ANFpvwZ0smsy0Tpu-16" value="&lt;b style=&quot;mso-bidi-font-weight:normal&quot;&gt;&lt;span lang=&quot;ES&quot;&gt;3. Determinación&lt;br&gt;de Infracciones y Envío de Comunicaciones&lt;/span&gt;&lt;/b&gt;" style="text;whiteSpace=wrap;html=1;" parent="Dba_KshNGZGqnBGReFBX-1" vertex="1">
          <mxGeometry x="33.5" y="545" width="160" height="50" as="geometry" />
        </mxCell>
        <mxCell id="rfN_ANFpvwZ0smsy0Tpu-19" value="&lt;div&gt;&lt;span style=&quot;text-align: center; background-color: rgb(255, 255, 255);&quot;&gt;Segunda Fase&lt;/span&gt;&lt;br style=&quot;text-align: center;&quot;&gt;&lt;span style=&quot;text-align: center; background-color: rgb(255, 255, 255);&quot;&gt;- Declarar cifras y datos falsos&lt;/span&gt;&lt;br style=&quot;text-align: center;&quot;&gt;&lt;span style=&quot;text-align: center; background-color: rgb(255, 255, 255);&quot;&gt;- No pagar dentro de los plazos&lt;/span&gt;&lt;br&gt;&lt;/div&gt;&lt;ul&gt;&lt;li&gt;registro&lt;/li&gt;&lt;li&gt;baja&lt;/li&gt;&lt;li&gt;reproceso&lt;/li&gt;&lt;/ul&gt;" style="rounded=0;whiteSpace=wrap;html=1;align=left;" parent="Dba_KshNGZGqnBGReFBX-1" vertex="1">
          <mxGeometry x="34" y="725" width="180" height="122" as="geometry" />
        </mxCell>
        <mxCell id="rfN_ANFpvwZ0smsy0Tpu-20" value="&lt;span style=&quot;text-align: center; background-color: rgb(255, 255, 255);&quot;&gt;Tercera Fase&lt;br&gt;&lt;/span&gt;&lt;br&gt;Generacion de infracciones por:&lt;br style=&quot;text-align: center;&quot;&gt;&lt;ul&gt;&lt;li&gt;&lt;span style=&quot;text-align: center; background-color: rgb(255, 255, 255);&quot;&gt;Pagos Autoliquidados&lt;/span&gt;&lt;/li&gt;&lt;li&gt;&lt;span style=&quot;text-align: center; background-color: rgb(255, 255, 255);&quot;&gt;Solicitudes de Fraccionamiento&lt;/span&gt;&lt;/li&gt;&lt;li&gt;&lt;span style=&quot;text-align: center; background-color: rgb(255, 255, 255);&quot;&gt;Solicitudes de Compensación&lt;/span&gt;&lt;/li&gt;&lt;li&gt;&lt;span style=&quot;text-align: center; background-color: rgb(255, 255, 255);&quot;&gt;Verificación/Fiscalización&lt;/span&gt;&lt;/li&gt;&lt;li&gt;&lt;span style=&quot;text-align: center; background-color: rgb(255, 255, 255);&quot;&gt;Procesos Masivos (CPE / LE)&lt;/span&gt;&lt;/li&gt;&lt;/ul&gt;&lt;div style=&quot;text-align: center;&quot;&gt;Aplicacion de Gradualidad hasta antes de la resolucion de Multa&lt;/div&gt;" style="rounded=0;whiteSpace=wrap;html=1;align=left;" parent="Dba_KshNGZGqnBGReFBX-1" vertex="1">
          <mxGeometry x="35" y="855" width="230" height="180" as="geometry" />
        </mxCell>
        <mxCell id="rfN_ANFpvwZ0smsy0Tpu-21" value="&lt;b style=&quot;mso-bidi-font-weight:normal&quot;&gt;&lt;span lang=&quot;ES&quot;&gt;4. Automatización&lt;br&gt;y Uniformización de Solicitudes de Procedimientos no Contenciosos&lt;/span&gt;&lt;/b&gt;&lt;span lang=&quot;ES&quot;&gt;&amp;nbsp;&lt;/span&gt;" style="text;whiteSpace=wrap;html=1;" parent="Dba_KshNGZGqnBGReFBX-1" vertex="1">
          <mxGeometry x="23.88" y="1250" width="280" height="50" as="geometry" />
        </mxCell>
        <mxCell id="rfN_ANFpvwZ0smsy0Tpu-31" style="edgeStyle=orthogonalEdgeStyle;rounded=0;orthogonalLoop=1;jettySize=auto;html=1;entryX=0.021;entryY=0.84;entryDx=0;entryDy=0;entryPerimeter=0;strokeWidth=2;fillColor=#f8cecc;strokeColor=#b85450;" parent="Dba_KshNGZGqnBGReFBX-1" source="rfN_ANFpvwZ0smsy0Tpu-22" target="rfN_ANFpvwZ0smsy0Tpu-27" edge="1">
          <mxGeometry relative="1" as="geometry">
            <Array as="points">
              <mxPoint x="267.13" y="1606" />
              <mxPoint x="267.13" y="1380" />
            </Array>
          </mxGeometry>
        </mxCell>
        <mxCell id="rfN_ANFpvwZ0smsy0Tpu-22" value="Generación de Solicitudes Automáticas" style="sketch=0;outlineConnect=0;fontColor=#232F3E;gradientColor=none;fillColor=#B0084D;strokeColor=none;dashed=0;verticalLabelPosition=bottom;verticalAlign=top;align=center;html=1;fontSize=12;fontStyle=0;aspect=fixed;pointerEvents=1;shape=mxgraph.aws4.event_time_based;" parent="Dba_KshNGZGqnBGReFBX-1" vertex="1">
          <mxGeometry x="128.88" y="1558" width="56.5" height="56.5" as="geometry" />
        </mxCell>
        <mxCell id="rfN_ANFpvwZ0smsy0Tpu-29" style="edgeStyle=orthogonalEdgeStyle;rounded=0;orthogonalLoop=1;jettySize=auto;html=1;entryX=0;entryY=0.75;entryDx=0;entryDy=0;entryPerimeter=0;strokeWidth=2;fillColor=#dae8fc;strokeColor=#6c8ebf;" parent="Dba_KshNGZGqnBGReFBX-1" source="rfN_ANFpvwZ0smsy0Tpu-23" target="rfN_ANFpvwZ0smsy0Tpu-26" edge="1">
          <mxGeometry relative="1" as="geometry">
            <Array as="points">
              <mxPoint x="287" y="1463" />
              <mxPoint x="287" y="1428" />
              <mxPoint x="420" y="1428" />
              <mxPoint x="420" y="1374" />
            </Array>
          </mxGeometry>
        </mxCell>
        <mxCell id="rfN_ANFpvwZ0smsy0Tpu-23" value="Modulo de &lt;br&gt;Modificación de Datos&lt;br&gt;(Consulta de Solicitudes)" style="sketch=0;aspect=fixed;html=1;points=[];align=center;image;fontSize=12;image=img/lib/mscae/App_Services.svg;" parent="Dba_KshNGZGqnBGReFBX-1" vertex="1">
          <mxGeometry x="138.88" y="1438" width="50" height="50" as="geometry" />
        </mxCell>
        <mxCell id="rfN_ANFpvwZ0smsy0Tpu-26" value="Solicitudes" style="sketch=0;points=[[0,0,0],[0.25,0,0],[0.5,0,0],[0.75,0,0],[1,0,0],[0,1,0],[0.25,1,0],[0.5,1,0],[0.75,1,0],[1,1,0],[0,0.25,0],[0,0.5,0],[0,0.75,0],[1,0.25,0],[1,0.5,0],[1,0.75,0]];outlineConnect=0;fontColor=#232F3E;gradientColor=#4D72F3;gradientDirection=north;fillColor=#3334B9;strokeColor=#ffffff;dashed=0;verticalLabelPosition=bottom;verticalAlign=top;align=center;html=1;fontSize=12;fontStyle=0;aspect=fixed;shape=mxgraph.aws4.resourceIcon;resIcon=mxgraph.aws4.documentdb_with_mongodb_compatibility;" parent="Dba_KshNGZGqnBGReFBX-1" vertex="1">
          <mxGeometry x="542" y="1330" width="58" height="58" as="geometry" />
        </mxCell>
        <mxCell id="rfN_ANFpvwZ0smsy0Tpu-32" style="edgeStyle=orthogonalEdgeStyle;rounded=0;orthogonalLoop=1;jettySize=auto;html=1;entryX=0;entryY=0.5;entryDx=0;entryDy=0;entryPerimeter=0;strokeWidth=2;fillColor=#f8cecc;strokeColor=#b85450;" parent="Dba_KshNGZGqnBGReFBX-1" source="rfN_ANFpvwZ0smsy0Tpu-27" target="rfN_ANFpvwZ0smsy0Tpu-26" edge="1">
          <mxGeometry relative="1" as="geometry">
            <Array as="points">
              <mxPoint x="420" y="1359" />
              <mxPoint x="420" y="1359" />
            </Array>
          </mxGeometry>
        </mxCell>
        <mxCell id="rfN_ANFpvwZ0smsy0Tpu-36" style="edgeStyle=orthogonalEdgeStyle;rounded=0;orthogonalLoop=1;jettySize=auto;html=1;strokeWidth=2;fillColor=#f8cecc;strokeColor=#b85450;" parent="Dba_KshNGZGqnBGReFBX-1" source="rfN_ANFpvwZ0smsy0Tpu-27" target="605iq-lV5Hz9d19N_AwI-9" edge="1">
          <mxGeometry relative="1" as="geometry">
            <Array as="points">
              <mxPoint x="356" y="1260" />
              <mxPoint x="450" y="1260" />
              <mxPoint x="450" y="300" />
              <mxPoint x="530" y="300" />
              <mxPoint x="530" y="140" />
            </Array>
          </mxGeometry>
        </mxCell>
        <mxCell id="rfN_ANFpvwZ0smsy0Tpu-27" value="Bus de Eventos" style="sketch=0;aspect=fixed;html=1;points=[];align=center;image;fontSize=12;image=img/lib/mscae/Event_Hubs.svg;" parent="Dba_KshNGZGqnBGReFBX-1" vertex="1">
          <mxGeometry x="332.13" y="1338" width="48" height="50" as="geometry" />
        </mxCell>
        <mxCell id="rfN_ANFpvwZ0smsy0Tpu-35" value="&lt;div&gt;&lt;span style=&quot;text-align: center; background-color: rgb(255, 255, 255);&quot;&gt;Primera Fase&lt;/span&gt;&lt;br style=&quot;text-align: center;&quot;&gt;&lt;span style=&quot;text-align: center; background-color: rgb(255, 255, 255);&quot;&gt;- Modificación de Datos (parte y oficio) Virtual. y Automático&amp;nbsp;(oficio)&lt;/span&gt;&lt;/div&gt;&lt;div&gt;&lt;span style=&quot;text-align: center; background-color: rgb(255, 255, 255);&quot;&gt;Segunda Fase&lt;/span&gt;&lt;/div&gt;&lt;div&gt;&lt;span style=&quot;text-align: center; background-color: rgb(255, 255, 255);&quot;&gt;- Reconocimiento de Pago con error (parte y oficio) virtual y Automático&amp;nbsp;(oficio)&amp;nbsp;&lt;/span&gt;&lt;/div&gt;&lt;div&gt;&lt;span style=&quot;text-align: center; background-color: rgb(255, 255, 255);&quot;&gt;Tercera Fase&lt;/span&gt;&lt;/div&gt;&lt;div&gt;&lt;span style=&quot;text-align: center; background-color: rgb(255, 255, 255);&quot;&gt;- Compensaciones&amp;nbsp;&lt;/span&gt;&lt;/div&gt;&lt;span style=&quot;text-align: center; background-color: rgb(255, 255, 255);&quot;&gt;&amp;nbsp;(parte y oficio) virtual y Automático&amp;nbsp;(oficio) y generar cuentas de acumulación&lt;br&gt;Cuarta Fase&lt;br&gt;- Reimputación de boletas SPOT&amp;nbsp;&lt;/span&gt;&lt;span style=&quot;text-align: center; background-color: rgb(255, 255, 255);&quot;&gt;&amp;nbsp;(parte y oficio) virtual y (oficio) Automático y generar cuentas de acumulación&lt;br&gt;&lt;/span&gt;Quinta Fase&lt;br&gt;- Devoluciones de Pagos Indebidos y en Exceso&amp;nbsp;&lt;span style=&quot;text-align: center; background-color: rgb(255, 255, 255);&quot;&gt;(parte y oficio) virtual y (oficio) Automático y generar cuentas de acumulación&lt;/span&gt;&lt;br style=&quot;text-align: center;&quot;&gt;&lt;span style=&quot;text-align: center; background-color: rgb(255, 255, 255);&quot;&gt;&lt;br&gt;&lt;/span&gt;" style="rounded=0;whiteSpace=wrap;html=1;align=left;" parent="Dba_KshNGZGqnBGReFBX-1" vertex="1">
          <mxGeometry x="299" y="1438" width="331" height="270" as="geometry" />
        </mxCell>
        <mxCell id="rfN_ANFpvwZ0smsy0Tpu-37" value="&lt;div&gt;&lt;span style=&quot;background-color: rgb(255, 255, 255);&quot;&gt;Información para emisión de resoluciones de multa&lt;/span&gt;&lt;/div&gt;" style="rounded=0;whiteSpace=wrap;html=1;align=left;" parent="Dba_KshNGZGqnBGReFBX-1" vertex="1">
          <mxGeometry x="930" y="540" width="150" height="45" as="geometry" />
        </mxCell>
        <mxCell id="rfN_ANFpvwZ0smsy0Tpu-42" style="edgeStyle=orthogonalEdgeStyle;rounded=0;orthogonalLoop=1;jettySize=auto;html=1;strokeWidth=2;fillColor=#e1d5e7;strokeColor=#9673a6;" parent="Dba_KshNGZGqnBGReFBX-1" source="rfN_ANFpvwZ0smsy0Tpu-41" target="605iq-lV5Hz9d19N_AwI-9" edge="1">
          <mxGeometry relative="1" as="geometry">
            <Array as="points">
              <mxPoint x="434" y="50" />
            </Array>
          </mxGeometry>
        </mxCell>
        <mxCell id="rfN_ANFpvwZ0smsy0Tpu-41" value="Otros eventos que afecten los importes" style="sketch=0;outlineConnect=0;fontColor=#232F3E;gradientColor=none;fillColor=#B0084D;strokeColor=none;dashed=0;verticalLabelPosition=bottom;verticalAlign=top;align=center;html=1;fontSize=12;fontStyle=0;aspect=fixed;pointerEvents=1;shape=mxgraph.aws4.event_event_based;" parent="Dba_KshNGZGqnBGReFBX-1" vertex="1">
          <mxGeometry x="299" y="10" width="55" height="55" as="geometry" />
        </mxCell>
        <mxCell id="rfN_ANFpvwZ0smsy0Tpu-43" value="&lt;b style=&quot;mso-bidi-font-weight:normal&quot;&gt;&lt;span lang=&quot;ES&quot;&gt;6. Liquidación&lt;br&gt;Centralizada de Tributos&lt;/span&gt;&lt;/b&gt;" style="text;whiteSpace=wrap;html=1;" parent="Dba_KshNGZGqnBGReFBX-1" vertex="1">
          <mxGeometry x="477" y="797" width="170" height="50" as="geometry" />
        </mxCell>
        <mxCell id="rfN_ANFpvwZ0smsy0Tpu-44" value="&lt;div&gt;&lt;span style=&quot;background-color: rgb(255, 255, 255);&quot;&gt;Renta PN&lt;/span&gt;&lt;/div&gt;&lt;div&gt;&lt;span style=&quot;background-color: rgb(255, 255, 255);&quot;&gt;Renta PJ&lt;/span&gt;&lt;/div&gt;&lt;div&gt;&lt;span style=&quot;background-color: rgb(255, 255, 255);&quot;&gt;IGV&lt;/span&gt;&lt;/div&gt;" style="rounded=0;whiteSpace=wrap;html=1;align=left;" parent="Dba_KshNGZGqnBGReFBX-1" vertex="1">
          <mxGeometry x="265" y="105" width="60" height="50" as="geometry" />
        </mxCell>
        <mxCell id="rfN_ANFpvwZ0smsy0Tpu-45" value="Gestión Cuentas Acumulación" style="sketch=0;aspect=fixed;html=1;points=[];align=center;image;fontSize=12;image=img/lib/mscae/App_Services.svg;" parent="Dba_KshNGZGqnBGReFBX-1" vertex="1">
          <mxGeometry x="363" y="210" width="50" height="50" as="geometry" />
        </mxCell>
        <mxCell id="rfN_ANFpvwZ0smsy0Tpu-49" style="edgeStyle=orthogonalEdgeStyle;rounded=0;orthogonalLoop=1;jettySize=auto;html=1;entryX=0;entryY=0.75;entryDx=0;entryDy=0;entryPerimeter=0;strokeWidth=2;fillColor=#f8cecc;strokeColor=#b85450;" parent="Dba_KshNGZGqnBGReFBX-1" source="rfN_ANFpvwZ0smsy0Tpu-46" target="605iq-lV5Hz9d19N_AwI-4" edge="1">
          <mxGeometry relative="1" as="geometry" />
        </mxCell>
        <mxCell id="rfN_ANFpvwZ0smsy0Tpu-46" value="Determinación de Omisos" style="sketch=0;aspect=fixed;html=1;points=[];align=center;image;fontSize=12;image=img/lib/mscae/App_Services.svg;" parent="Dba_KshNGZGqnBGReFBX-1" vertex="1">
          <mxGeometry x="558" y="420" width="50" height="50" as="geometry" />
        </mxCell>
        <mxCell id="rfN_ANFpvwZ0smsy0Tpu-51" value="MIGE" style="sketch=0;aspect=fixed;html=1;points=[];align=center;image;fontSize=12;image=img/lib/mscae/App_Services.svg;" parent="Dba_KshNGZGqnBGReFBX-1" vertex="1">
          <mxGeometry x="812" y="790" width="50" height="50" as="geometry" />
        </mxCell>
        <mxCell id="rfN_ANFpvwZ0smsy0Tpu-52" value="Cuentas de Control de&lt;br&gt;&amp;nbsp;Retenciones y Percepciones" style="sketch=0;aspect=fixed;html=1;points=[];align=center;image;fontSize=12;image=img/lib/mscae/App_Services.svg;" parent="Dba_KshNGZGqnBGReFBX-1" vertex="1">
          <mxGeometry x="930" y="790" width="50" height="50" as="geometry" />
        </mxCell>
        <mxCell id="rfN_ANFpvwZ0smsy0Tpu-53" value="Padrón RUC" style="sketch=0;points=[[0,0,0],[0.25,0,0],[0.5,0,0],[0.75,0,0],[1,0,0],[0,1,0],[0.25,1,0],[0.5,1,0],[0.75,1,0],[1,1,0],[0,0.25,0],[0,0.5,0],[0,0.75,0],[1,0.25,0],[1,0.5,0],[1,0.75,0]];outlineConnect=0;fontColor=#232F3E;gradientColor=#4D72F3;gradientDirection=north;fillColor=#3334B9;strokeColor=#ffffff;dashed=0;verticalLabelPosition=bottom;verticalAlign=top;align=center;html=1;fontSize=12;fontStyle=0;aspect=fixed;shape=mxgraph.aws4.resourceIcon;resIcon=mxgraph.aws4.documentdb_with_mongodb_compatibility;" parent="Dba_KshNGZGqnBGReFBX-1" vertex="1">
          <mxGeometry x="351" y="455" width="59" height="59" as="geometry" />
        </mxCell>
        <mxCell id="rfN_ANFpvwZ0smsy0Tpu-56" style="edgeStyle=orthogonalEdgeStyle;rounded=0;orthogonalLoop=1;jettySize=auto;html=1;entryX=-0.042;entryY=0.62;entryDx=0;entryDy=0;entryPerimeter=0;strokeWidth=2;" parent="Dba_KshNGZGqnBGReFBX-1" source="rfN_ANFpvwZ0smsy0Tpu-76" target="rfN_ANFpvwZ0smsy0Tpu-55" edge="1">
          <mxGeometry relative="1" as="geometry">
            <mxPoint x="642" y="990" as="sourcePoint" />
            <Array as="points">
              <mxPoint x="760" y="1240" />
              <mxPoint x="760" y="1301" />
            </Array>
          </mxGeometry>
        </mxCell>
        <mxCell id="rfN_ANFpvwZ0smsy0Tpu-60" style="edgeStyle=orthogonalEdgeStyle;rounded=0;orthogonalLoop=1;jettySize=auto;html=1;entryX=0;entryY=0.5;entryDx=0;entryDy=0;entryPerimeter=0;strokeWidth=2;startArrow=none;" parent="Dba_KshNGZGqnBGReFBX-1" source="rfN_ANFpvwZ0smsy0Tpu-70" target="rfN_ANFpvwZ0smsy0Tpu-59" edge="1">
          <mxGeometry relative="1" as="geometry">
            <mxPoint x="642" y="990" as="sourcePoint" />
            <Array as="points">
              <mxPoint x="730" y="970" />
              <mxPoint x="730" y="1110" />
              <mxPoint x="830" y="1110" />
            </Array>
          </mxGeometry>
        </mxCell>
        <mxCell id="rfN_ANFpvwZ0smsy0Tpu-58" style="edgeStyle=orthogonalEdgeStyle;rounded=0;orthogonalLoop=1;jettySize=auto;html=1;strokeWidth=2;" parent="Dba_KshNGZGqnBGReFBX-1" source="rfN_ANFpvwZ0smsy0Tpu-55" target="rfN_ANFpvwZ0smsy0Tpu-57" edge="1">
          <mxGeometry relative="1" as="geometry" />
        </mxCell>
        <mxCell id="rfN_ANFpvwZ0smsy0Tpu-55" value="Bus de Eventos" style="sketch=0;aspect=fixed;html=1;points=[];align=center;image;fontSize=12;image=img/lib/mscae/Event_Hubs.svg;" parent="Dba_KshNGZGqnBGReFBX-1" vertex="1">
          <mxGeometry x="812" y="1270" width="48" height="50" as="geometry" />
        </mxCell>
        <mxCell id="rfN_ANFpvwZ0smsy0Tpu-57" value="RSIRAT&lt;br&gt;Ordenes de Pago&lt;br&gt;(informix)" style="sketch=0;points=[[0,0,0],[0.25,0,0],[0.5,0,0],[0.75,0,0],[1,0,0],[0,1,0],[0.25,1,0],[0.5,1,0],[0.75,1,0],[1,1,0],[0,0.25,0],[0,0.5,0],[0,0.75,0],[1,0.25,0],[1,0.5,0],[1,0.75,0]];outlineConnect=0;gradientDirection=north;fillColor=#dae8fc;strokeColor=#6c8ebf;dashed=0;verticalLabelPosition=bottom;verticalAlign=top;align=center;html=1;fontSize=12;fontStyle=0;aspect=fixed;shape=mxgraph.aws4.resourceIcon;resIcon=mxgraph.aws4.database;" parent="Dba_KshNGZGqnBGReFBX-1" vertex="1">
          <mxGeometry x="950" y="1260" width="60" height="60" as="geometry" />
        </mxCell>
        <mxCell id="rfN_ANFpvwZ0smsy0Tpu-59" value="Ordenes de Pago" style="sketch=0;points=[[0,0,0],[0.25,0,0],[0.5,0,0],[0.75,0,0],[1,0,0],[0,1,0],[0.25,1,0],[0.5,1,0],[0.75,1,0],[1,1,0],[0,0.25,0],[0,0.5,0],[0,0.75,0],[1,0.25,0],[1,0.5,0],[1,0.75,0]];outlineConnect=0;fontColor=#232F3E;gradientColor=#4D72F3;gradientDirection=north;fillColor=#3334B9;strokeColor=#ffffff;dashed=0;verticalLabelPosition=bottom;verticalAlign=top;align=center;html=1;fontSize=12;fontStyle=0;aspect=fixed;shape=mxgraph.aws4.resourceIcon;resIcon=mxgraph.aws4.documentdb_with_mongodb_compatibility;" parent="Dba_KshNGZGqnBGReFBX-1" vertex="1">
          <mxGeometry x="865" y="1110" width="58" height="58" as="geometry" />
        </mxCell>
        <mxCell id="rfN_ANFpvwZ0smsy0Tpu-65" style="edgeStyle=orthogonalEdgeStyle;rounded=0;orthogonalLoop=1;jettySize=auto;html=1;entryX=0;entryY=0.75;entryDx=0;entryDy=0;entryPerimeter=0;strokeWidth=2;fillColor=#dae8fc;strokeColor=#6c8ebf;" parent="Dba_KshNGZGqnBGReFBX-1" source="rfN_ANFpvwZ0smsy0Tpu-62" target="rfN_ANFpvwZ0smsy0Tpu-59" edge="1">
          <mxGeometry relative="1" as="geometry">
            <mxPoint x="632" y="1055" as="sourcePoint" />
            <Array as="points">
              <mxPoint x="830" y="1154" />
            </Array>
          </mxGeometry>
        </mxCell>
        <mxCell id="rfN_ANFpvwZ0smsy0Tpu-62" value="Consulta de Ordenes de Pago" style="sketch=0;aspect=fixed;html=1;points=[];align=center;image;fontSize=12;image=img/lib/mscae/App_Services.svg;" parent="Dba_KshNGZGqnBGReFBX-1" vertex="1">
          <mxGeometry x="309" y="1130" width="50" height="50" as="geometry" />
        </mxCell>
        <mxCell id="rfN_ANFpvwZ0smsy0Tpu-73" style="edgeStyle=orthogonalEdgeStyle;rounded=0;orthogonalLoop=1;jettySize=auto;html=1;strokeWidth=2;" parent="Dba_KshNGZGqnBGReFBX-1" source="rfN_ANFpvwZ0smsy0Tpu-66" target="rfN_ANFpvwZ0smsy0Tpu-70" edge="1">
          <mxGeometry relative="1" as="geometry" />
        </mxCell>
        <mxCell id="rfN_ANFpvwZ0smsy0Tpu-66" value="(diario)&lt;br&gt;8:00 am" style="sketch=0;outlineConnect=0;fontColor=#232F3E;gradientColor=none;fillColor=#B0084D;strokeColor=none;dashed=0;verticalLabelPosition=bottom;verticalAlign=top;align=center;html=1;fontSize=12;fontStyle=0;aspect=fixed;pointerEvents=1;shape=mxgraph.aws4.event_time_based;" parent="Dba_KshNGZGqnBGReFBX-1" vertex="1">
          <mxGeometry x="495" y="970" width="47" height="47" as="geometry" />
        </mxCell>
        <mxCell id="rfN_ANFpvwZ0smsy0Tpu-67" value="SINE" style="sketch=0;aspect=fixed;html=1;points=[];align=center;image;fontSize=12;image=img/lib/mscae/App_Services.svg;" parent="Dba_KshNGZGqnBGReFBX-1" vertex="1">
          <mxGeometry x="880" y="690" width="50" height="50" as="geometry" />
        </mxCell>
        <mxCell id="rfN_ANFpvwZ0smsy0Tpu-74" style="edgeStyle=orthogonalEdgeStyle;rounded=0;orthogonalLoop=1;jettySize=auto;html=1;strokeWidth=2;" parent="Dba_KshNGZGqnBGReFBX-1" source="rfN_ANFpvwZ0smsy0Tpu-70" target="rfN_ANFpvwZ0smsy0Tpu-67" edge="1">
          <mxGeometry relative="1" as="geometry">
            <Array as="points">
              <mxPoint x="780" y="970" />
              <mxPoint x="780" y="880" />
              <mxPoint x="770" y="880" />
              <mxPoint x="770" y="700" />
            </Array>
          </mxGeometry>
        </mxCell>
        <mxCell id="rfN_ANFpvwZ0smsy0Tpu-80" style="edgeStyle=orthogonalEdgeStyle;rounded=0;orthogonalLoop=1;jettySize=auto;html=1;entryX=0.458;entryY=0;entryDx=0;entryDy=0;entryPerimeter=0;strokeWidth=2;" parent="Dba_KshNGZGqnBGReFBX-1" source="rfN_ANFpvwZ0smsy0Tpu-70" target="rfN_ANFpvwZ0smsy0Tpu-79" edge="1">
          <mxGeometry relative="1" as="geometry" />
        </mxCell>
        <mxCell id="rfN_ANFpvwZ0smsy0Tpu-82" style="edgeStyle=orthogonalEdgeStyle;rounded=0;orthogonalLoop=1;jettySize=auto;html=1;strokeWidth=2;" parent="Dba_KshNGZGqnBGReFBX-1" source="rfN_ANFpvwZ0smsy0Tpu-70" target="605iq-lV5Hz9d19N_AwI-9" edge="1">
          <mxGeometry relative="1" as="geometry">
            <Array as="points">
              <mxPoint x="720" y="950" />
              <mxPoint x="720" y="130" />
            </Array>
          </mxGeometry>
        </mxCell>
        <mxCell id="rfN_ANFpvwZ0smsy0Tpu-70" value="Liquidación Centralizada" style="sketch=0;aspect=fixed;html=1;points=[];align=center;image;fontSize=12;image=img/lib/mscae/App_Services.svg;" parent="Dba_KshNGZGqnBGReFBX-1" vertex="1">
          <mxGeometry x="628" y="945" width="50" height="50" as="geometry" />
        </mxCell>
        <mxCell id="rfN_ANFpvwZ0smsy0Tpu-75" value="&lt;div&gt;&lt;span style=&quot;background-color: rgb(255, 255, 255);&quot;&gt;Obtener Saldo Deudor del IGV&lt;/span&gt;&lt;/div&gt;&lt;div&gt;&lt;span style=&quot;background-color: rgb(255, 255, 255);&quot;&gt;Detectar y Validar Preliminares de valores IGV&lt;/span&gt;&lt;/div&gt;&lt;div&gt;&lt;span style=&quot;background-color: rgb(255, 255, 255);&quot;&gt;Generar Cuenta de acumulación para preliminares&lt;/span&gt;&lt;/div&gt;&lt;div&gt;&lt;span style=&quot;background-color: rgb(255, 255, 255);&quot;&gt;Emisión de Ordenes de Pago de Preliminar (automatica/semi-automatica)&lt;/span&gt;&lt;/div&gt;&lt;div&gt;&lt;span style=&quot;background-color: rgb(255, 255, 255);&quot;&gt;Reversión de Ordenes de Pago&lt;/span&gt;&lt;/div&gt;" style="rounded=0;whiteSpace=wrap;html=1;align=left;" parent="Dba_KshNGZGqnBGReFBX-1" vertex="1">
          <mxGeometry x="480" y="847" width="280" height="90" as="geometry" />
        </mxCell>
        <mxCell id="rfN_ANFpvwZ0smsy0Tpu-78" style="edgeStyle=orthogonalEdgeStyle;rounded=0;orthogonalLoop=1;jettySize=auto;html=1;entryX=0;entryY=0.5;entryDx=0;entryDy=0;entryPerimeter=0;strokeWidth=2;" parent="Dba_KshNGZGqnBGReFBX-1" source="rfN_ANFpvwZ0smsy0Tpu-76" target="rfN_ANFpvwZ0smsy0Tpu-59" edge="1">
          <mxGeometry relative="1" as="geometry">
            <Array as="points">
              <mxPoint x="760" y="1220" />
              <mxPoint x="760" y="1139" />
            </Array>
          </mxGeometry>
        </mxCell>
        <mxCell id="rfN_ANFpvwZ0smsy0Tpu-76" value="Emisión de Ordenes de Pago" style="sketch=0;aspect=fixed;html=1;points=[];align=center;image;fontSize=12;image=img/lib/mscae/App_Services.svg;" parent="Dba_KshNGZGqnBGReFBX-1" vertex="1">
          <mxGeometry x="637" y="1210" width="50" height="50" as="geometry" />
        </mxCell>
        <mxCell id="rfN_ANFpvwZ0smsy0Tpu-81" style="edgeStyle=orthogonalEdgeStyle;rounded=0;orthogonalLoop=1;jettySize=auto;html=1;strokeWidth=2;" parent="Dba_KshNGZGqnBGReFBX-1" source="rfN_ANFpvwZ0smsy0Tpu-79" target="rfN_ANFpvwZ0smsy0Tpu-76" edge="1">
          <mxGeometry relative="1" as="geometry">
            <Array as="points">
              <mxPoint x="660" y="1180" />
              <mxPoint x="660" y="1180" />
            </Array>
          </mxGeometry>
        </mxCell>
        <mxCell id="rfN_ANFpvwZ0smsy0Tpu-79" value="Bus de Eventos" style="sketch=0;aspect=fixed;html=1;points=[];align=center;image;fontSize=12;image=img/lib/mscae/Event_Hubs.svg;" parent="Dba_KshNGZGqnBGReFBX-1" vertex="1">
          <mxGeometry x="631" y="1060" width="48" height="50" as="geometry" />
        </mxCell>
        <mxCell id="rfN_ANFpvwZ0smsy0Tpu-17" value="&lt;b style=&quot;mso-bidi-font-weight:normal&quot;&gt;&lt;span lang=&quot;ES&quot;&gt;1. Información&lt;br&gt;para Propuesta de Declaración de Impuesto a la Renta Anual de Personas&lt;br&gt;Jurídicas&lt;br&gt;&lt;/span&gt;&lt;/b&gt;&lt;b&gt;&lt;span style=&quot;font-size:9.0pt;font-family:&amp;quot;Arial&amp;quot;,sans-serif;mso-fareast-font-family:&lt;br/&gt;Arial;mso-ansi-language:ES;mso-fareast-language:ES-PE;mso-bidi-language:AR-SA&quot; lang=&quot;ES&quot;&gt;2. Información&lt;br/&gt;para Propuesta de Declaración de Impuesto a la Renta Anual de Personas&lt;br/&gt;Naturales&lt;/span&gt;&lt;/b&gt;&lt;b style=&quot;mso-bidi-font-weight:normal&quot;&gt;&lt;span lang=&quot;ES&quot;&gt;&lt;span style=&quot;mso-spacerun:yes&quot;&gt;&amp;nbsp;&amp;nbsp;&lt;br&gt;&lt;br&gt;&lt;/span&gt;&lt;/span&gt;&lt;/b&gt;" style="text;whiteSpace=wrap;html=1;" parent="Dba_KshNGZGqnBGReFBX-1" vertex="1">
          <mxGeometry x="471" y="-60" width="200" height="150" as="geometry" />
        </mxCell>
        <mxCell id="DIFG98XEOqSEpMep4TaU-1" value="Gastos Deducibles&lt;br&gt;RRHH" style="sketch=0;points=[[0,0,0],[0.25,0,0],[0.5,0,0],[0.75,0,0],[1,0,0],[0,1,0],[0.25,1,0],[0.5,1,0],[0.75,1,0],[1,1,0],[0,0.25,0],[0,0.5,0],[0,0.75,0],[1,0.25,0],[1,0.5,0],[1,0.75,0]];outlineConnect=0;fontColor=#232F3E;gradientColor=#4D72F3;gradientDirection=north;fillColor=#3334B9;strokeColor=#ffffff;dashed=0;verticalLabelPosition=bottom;verticalAlign=top;align=center;html=1;fontSize=12;fontStyle=0;aspect=fixed;shape=mxgraph.aws4.resourceIcon;resIcon=mxgraph.aws4.database;" vertex="1" parent="Dba_KshNGZGqnBGReFBX-1">
          <mxGeometry x="820" y="935" width="60" height="60" as="geometry" />
        </mxCell>
        <mxCell id="Dba_KshNGZGqnBGReFBX-17" style="edgeStyle=orthogonalEdgeStyle;rounded=0;orthogonalLoop=1;jettySize=auto;html=1;entryX=0.02;entryY=0.5;entryDx=0;entryDy=0;entryPerimeter=0;fillColor=#dae8fc;strokeColor=#6c8ebf;strokeWidth=2;" parent="1" source="Dba_KshNGZGqnBGReFBX-4" target="Dba_KshNGZGqnBGReFBX-16" edge="1">
          <mxGeometry relative="1" as="geometry">
            <Array as="points">
              <mxPoint x="160" y="260" />
              <mxPoint x="160" y="285" />
              <mxPoint x="220" y="285" />
              <mxPoint x="220" y="510" />
            </Array>
          </mxGeometry>
        </mxCell>
        <mxCell id="605iq-lV5Hz9d19N_AwI-19" style="edgeStyle=orthogonalEdgeStyle;rounded=0;orthogonalLoop=1;jettySize=auto;html=1;strokeWidth=2;fillColor=#f8cecc;strokeColor=#b85450;" parent="1" source="Dba_KshNGZGqnBGReFBX-4" target="605iq-lV5Hz9d19N_AwI-8" edge="1">
          <mxGeometry relative="1" as="geometry">
            <Array as="points">
              <mxPoint x="160" y="259" />
              <mxPoint x="160" y="200" />
            </Array>
          </mxGeometry>
        </mxCell>
        <mxCell id="rfN_ANFpvwZ0smsy0Tpu-25" style="edgeStyle=orthogonalEdgeStyle;rounded=0;orthogonalLoop=1;jettySize=auto;html=1;strokeWidth=2;fillColor=#f8cecc;strokeColor=#b85450;" parent="1" source="Dba_KshNGZGqnBGReFBX-4" target="rfN_ANFpvwZ0smsy0Tpu-15" edge="1">
          <mxGeometry relative="1" as="geometry">
            <Array as="points">
              <mxPoint x="150" y="259" />
              <mxPoint x="150" y="1473" />
            </Array>
          </mxGeometry>
        </mxCell>
        <mxCell id="rfN_ANFpvwZ0smsy0Tpu-64" style="edgeStyle=orthogonalEdgeStyle;rounded=0;orthogonalLoop=1;jettySize=auto;html=1;strokeWidth=2;fillColor=#dae8fc;strokeColor=#6c8ebf;" parent="1" source="Dba_KshNGZGqnBGReFBX-4" target="rfN_ANFpvwZ0smsy0Tpu-62" edge="1">
          <mxGeometry relative="1" as="geometry">
            <Array as="points">
              <mxPoint x="160" y="259" />
              <mxPoint x="160" y="1270" />
            </Array>
          </mxGeometry>
        </mxCell>
        <mxCell id="Dba_KshNGZGqnBGReFBX-4" value="Contribuyentes&lt;br&gt;PN/PJ" style="sketch=0;outlineConnect=0;fontColor=#232F3E;gradientColor=none;fillColor=#232F3D;strokeColor=none;dashed=0;verticalLabelPosition=bottom;verticalAlign=top;align=center;html=1;fontSize=12;fontStyle=0;aspect=fixed;pointerEvents=1;shape=mxgraph.aws4.users;" parent="1" vertex="1">
          <mxGeometry x="30" y="220" width="78" height="78" as="geometry" />
        </mxCell>
        <mxCell id="Dba_KshNGZGqnBGReFBX-18" style="edgeStyle=orthogonalEdgeStyle;rounded=0;orthogonalLoop=1;jettySize=auto;html=1;fillColor=#dae8fc;strokeColor=#6c8ebf;strokeWidth=2;" parent="1" source="Dba_KshNGZGqnBGReFBX-5" target="Dba_KshNGZGqnBGReFBX-16" edge="1">
          <mxGeometry relative="1" as="geometry">
            <mxPoint x="108" y="924" as="sourcePoint" />
            <Array as="points">
              <mxPoint x="170" y="860" />
              <mxPoint x="170" y="510" />
            </Array>
          </mxGeometry>
        </mxCell>
        <mxCell id="rfN_ANFpvwZ0smsy0Tpu-24" style="edgeStyle=orthogonalEdgeStyle;rounded=0;orthogonalLoop=1;jettySize=auto;html=1;strokeWidth=2;strokeColor=#6c8ebf;fillColor=#dae8fc;" parent="1" source="Dba_KshNGZGqnBGReFBX-5" target="rfN_ANFpvwZ0smsy0Tpu-23" edge="1">
          <mxGeometry relative="1" as="geometry">
            <Array as="points">
              <mxPoint x="170" y="839" />
              <mxPoint x="170" y="1590" />
            </Array>
          </mxGeometry>
        </mxCell>
        <mxCell id="rfN_ANFpvwZ0smsy0Tpu-63" style="edgeStyle=orthogonalEdgeStyle;rounded=0;orthogonalLoop=1;jettySize=auto;html=1;strokeWidth=2;strokeColor=#6c8ebf;fillColor=#dae8fc;" parent="1" source="Dba_KshNGZGqnBGReFBX-5" target="rfN_ANFpvwZ0smsy0Tpu-62" edge="1">
          <mxGeometry relative="1" as="geometry">
            <Array as="points">
              <mxPoint x="140" y="849" />
              <mxPoint x="140" y="1290" />
            </Array>
          </mxGeometry>
        </mxCell>
        <mxCell id="rfN_ANFpvwZ0smsy0Tpu-77" style="edgeStyle=orthogonalEdgeStyle;rounded=0;orthogonalLoop=1;jettySize=auto;html=1;entryX=0.02;entryY=0.6;entryDx=0;entryDy=0;entryPerimeter=0;strokeWidth=2;" parent="1" source="Dba_KshNGZGqnBGReFBX-5" target="rfN_ANFpvwZ0smsy0Tpu-76" edge="1">
          <mxGeometry relative="1" as="geometry">
            <Array as="points">
              <mxPoint x="130" y="849" />
              <mxPoint x="130" y="1220" />
              <mxPoint x="680" y="1220" />
              <mxPoint x="680" y="1370" />
            </Array>
          </mxGeometry>
        </mxCell>
        <mxCell id="Dba_KshNGZGqnBGReFBX-5" value="Funcionarios" style="sketch=0;outlineConnect=0;fontColor=#232F3E;gradientColor=none;fillColor=#232F3D;strokeColor=none;dashed=0;verticalLabelPosition=bottom;verticalAlign=top;align=center;html=1;fontSize=12;fontStyle=0;aspect=fixed;pointerEvents=1;shape=mxgraph.aws4.users;" parent="1" vertex="1">
          <mxGeometry x="30" y="810" width="78" height="78" as="geometry" />
        </mxCell>
        <mxCell id="rfN_ANFpvwZ0smsy0Tpu-38" value="&lt;b style=&quot;mso-bidi-font-weight:normal&quot;&gt;&lt;span lang=&quot;ES&quot;&gt;5. Información&lt;br&gt;para propuesta de Declaración Jurada del IGV – Formulario 621&lt;/span&gt;&lt;/b&gt;" style="text;whiteSpace=wrap;html=1;" parent="1" vertex="1">
          <mxGeometry x="880" y="80" width="310" height="80" as="geometry" />
        </mxCell>
      </root>
    </mxGraphModel>
  </diagram>
</mxfile>
